<?xml version="1.0" encoding="utf-8"?>
<!-- Generator: Adobe Illustrator 20.0.0, SVG Export Plug-In . SVG Version: 6.00 Build 0)  -->
<svg version="1.1" id="Layer_1" xmlns="http://www.w3.org/2000/svg" xmlns:xlink="http://www.w3.org/1999/xlink" x="0px" y="0px"
	 viewBox="0 0 442.6 81.6" style="enable-background:new 0 0 442.6 81.6;" xml:space="preserve">
<g id="Regular_YY_Gallery">
</g>
<g id="Regular__x2F__Final_Kerning">
	<g>
		<path d="M28,49.3L0,1.4h11.9l21.3,37.1h0.5L55.9,1.4h11L38.5,48.5v31.7H28C28,80.2,28,49.3,28,49.3z"/>
		<path d="M60.2,24.3h11l15.6,44.9h0.5l15.6-44.9h10.1L92.3,80.2h-11L60.2,24.3z"/>
		<path d="M142,22.9c14.7,0,24.7,9.9,24.7,26.6v4.1H126c0.5,11.7,6.8,19.2,16.5,19.2c8.2,0,12.6-4.6,13.7-9.6h10.1
			c-1.5,10-10.8,18.3-23.8,18.3c-17.4,0-27-11.5-27-29.3C115.4,34.8,126.9,22.9,142,22.9z M126.5,46.1h29.9
			c-0.9-10.1-6.1-14.4-14.4-14.4C134.4,31.6,128.4,37,126.5,46.1z"/>
		<g>
			<path d="M190.2,49.3l-28-47.9h11.9l21.3,37.1h0.5l22.2-37.1h11l-28.4,47.1v31.7h-10.5L190.2,49.3L190.2,49.3z"/>
			<path d="M246.2,1.4h12.4l29.3,78.8h-11l-7.4-20.6h-34.6l-7.4,20.6h-10.5L246.2,1.4z M251.9,12.4l-13.7,38h28l-13.7-38H251.9z"/>
			<path d="M296.6,1.4h10.1l43.5,60.9h0.5l-0.5-60.9h10.5v78.8h-10.1l-43.5-60.5h-0.5l0.5,60.5h-10.5V1.4z"/>
			<path d="M407.7,38.5h34.8v7.3c0,24.7-16.8,35.7-35.3,35.7c-22.8,0-38.5-16.8-38.5-40.3c0-23.5,16.2-41.2,39.9-41.2
				c11.7,0,23,4,30.2,12.8l-7.3,6.9c-6.5-7.6-15.2-10.1-23.4-10.1c-17.1,0-28.4,13.7-28.4,31.2s10.4,31.2,27.5,31.2
				c13.5,0,24.7-7.8,24.7-24.3h-24.3L407.7,38.5L407.7,38.5z"/>
		</g>
	</g>
</g>
<g id="UNFINISHED_Medium__x2F__Final_Kerning_copy">
</g>
<g id="Layer_4">
</g>
</svg>
